<?xml version="1.0" encoding="utf-8"?>
<!-- Generator: Adobe Illustrator 26.0.3, SVG Export Plug-In . SVG Version: 6.00 Build 0)  -->
<svg version="1.1" xmlns="http://www.w3.org/2000/svg" xmlns:xlink="http://www.w3.org/1999/xlink" x="0px" y="0px"
	 viewBox="0 0 960 960" style="enable-background:new 0 0 960 960;" xml:space="preserve">
<style type="text/css">
	.st0{display:none;}
	.st1{display:inline;fill:none;stroke:#000000;stroke-width:5;stroke-miterlimit:10;}
	.st2{display:inline;fill:none;stroke:#000000;stroke-width:10;stroke-miterlimit:10;}
	.st3{display:inline;fill:none;}
	.st4{display:inline;fill:none;stroke:#000000;stroke-width:5;stroke-linejoin:bevel;stroke-miterlimit:10;}
	.st5{fill:none;stroke:#000000;stroke-width:10;stroke-miterlimit:10;}
	.st6{fill:none;stroke:#000000;stroke-width:5;stroke-miterlimit:10;}
</style>
<g id="Layer_1" class="st0">
	<g id="irblM4_00000158739736943110929840000001364687164454447747_">
		
			<image style="display:inline;overflow:visible;" width="1000" height="1000" id="irblM4" xlink:href="D9E547C761E34B3E.jpg"  transform="matrix(1 0 0 1 -21 -21)">
		</image>
	</g>
	<path class="st1" d="M22.9,168.9c9.8-23.2,32.7-39.4,59.5-39.4h628.9c35.6,0,64.5,28.9,64.5,64.5v628.9c0,35.6-28.9,64.5-64.5,64.5
		"/>
	<path class="st2" d="M711.2,887.5c0,0,25.3,0,48.9-3.2c23.6-3.2,89.1-59.2,105-73.8s18.6-27.7,18.6-45.4V136.3
		c0-35.6-28.9-64.5-64.5-64.5H190.4c-24.4,0-49.7,9.9-49.7,9.9S82.2,106.7,60.1,123s-37,45.4-37,45.4l-0.3,0.6
		c-3.3,7.7-5.1,16.2-5.1,25.1v628.9c0,35.6,28.9,64.5,64.5,64.5H711.2"/>
	<path class="st1" d="M253.5,351.5c39.7-55.9,99.1-96.8,168.1-112.6"/>
	<path class="st1" d="M202.5,487.6c1.6-16,4.5-31.7,8.6-46.8"/>
	<path class="st1" d="M421.6,792.7c-86.5-19.8-157.9-79-194.3-157.8"/>
	<circle class="st1" cx="358" cy="515.8" r="284.1"/>
	<path class="st1" d="M147.6,666.9c-28.3-44.2-44.2-94.8-44.2-151.1"/>
	<circle class="st1" cx="348.6" cy="515.8" r="36.2"/>
	<path class="st1" d="M640.4,547c-5.4,3.2-11.7,5.1-18.5,5.1c-20,0-36.2-16.2-36.2-36.2s16.2-36.2,36.2-36.2
		c6.8,0,13.1,1.9,18.5,5.1"/>
	<path class="st3" d="M148.1,450.7"/>
	<path class="st4" d="M148.1,450.7v-87.9l105.4-11.3v82.7L148.1,450.7h-37.2v0c7.4-31.7,19.6-59.3,36.6-85.9"/>
	<polyline class="st4" points="227.3,634.9 253.5,623.7 253.5,489.7 202.5,487.6 100.4,516.7 148.1,518.8 250.4,490.6 	"/>
	<polyline class="st4" points="148.1,518.8 148.1,668.8 227.3,634.9 	"/>
	<path class="st2" d="M881.8,381.5l27.9-13.9c3.9-2,8.4-3.1,13.1-3.1c16,0,28.9,12.9,28.9,28.9c0,11.4-6.7,21.3-16.3,26l-51.6,26.2"
		/>
	<path class="st1" d="M467,115.5h-55.9c-4.7,0-2.5-3.8,4.9-8.5l11.2-7.1c7.4-4.7,17.1-8.5,21.8-8.5h55.9c4.7,0,2.5,3.8-4.9,8.5
		l-11.2,7.1C481.5,111.7,471.7,115.5,467,115.5z"/>
</g>
<g id="Layer_2">
	<g id="kJaF02_00000165917224369073155790000018098654969675444642_" class="st0">
		
			<image style="display:inline;overflow:visible;" width="1000" height="1000" id="kJaF02" xlink:href="D9E547C761E34B3D.jpg"  transform="matrix(1.0537 0 0 1.0537 -49.4715 -49.0151)">
		</image>
	</g>
	<path class="st5" d="M438.8,935.1H170.7c-50.8,0-91.9-41.2-91.9-91.9V123c0-50.8,41.2-91.9,91.9-91.9h268.1
		c50.8,0,91.9,41.2,91.9,91.9v720.1C530.8,893.9,489.6,935.1,438.8,935.1z"/>
	<path class="st5" d="M816.6,935.1h-50.3c-30,0-54.2-24.3-54.2-54.2V303c0-30,24.3-54.2,54.2-54.2h50.3c30,0,54.2,24.3,54.2,54.2
		v577.8C870.8,910.8,846.6,935.1,816.6,935.1z"/>
	<path class="st6" d="M259.2,212.8h-59.7c-6.5,0-11.8-5.3-11.8-11.8v-59.7c0-6.5,5.3-11.8,11.8-11.8h59.7c6.5,0,11.8,5.3,11.8,11.8
		V201C271,207.5,265.7,212.8,259.2,212.8z"/>
	<path class="st6" d="M265.2,231.8h-71.8c-13.6,0-24.7-11.1-24.7-24.7v-71.8c0-13.6,11.1-24.7,24.7-24.7h71.8
		c13.6,0,24.7,11.1,24.7,24.7v71.8C289.9,220.7,278.9,231.8,265.2,231.8z"/>
</g>
</svg>
